/* XPM */
static char * player1_xpm[] = {
"60 60 16 1",
" 	c None",
".	c #000000",
"+	c #936A4D",
"@	c #A8795D",
"#	c #78553F",
"$	c #584032",
"%	c #71513D",
"&	c #1F1F1F",
"*	c #2B2B2B",
"=	c #4E4E4E",
"-	c #19132A",
";	c #251C40",
">	c #513B2F",
",	c #34265B",
"'	c #261D41",
")	c #715341",
"                                                            ",
"                                                            ",
"                                                            ",
"                        ............                        ",
"                        ............                        ",
"                        ............                        ",
"                     ...++++++@@@@@@...                     ",
"                     ...++++++@@@@@@...                     ",
"                     ...++++++@@@@@@...                     ",
"                  ...###++++++++++++@@@...                  ",
"                  ...###++++++++++++@@@...                  ",
"                  ...###++++++++++++@@@...                  ",
"               ...###++++++...++++++...@@@...               ",
"               ...###++++++...++++++...@@@...               ",
"               ...###++++++...++++++...@@@...               ",
"               ...######++++++$$$$$$++++++...               ",
"               ...######++++++$$$$$$++++++...               ",
"               ...######++++++$$$$$$++++++...               ",
"                  ...######++++++++++++...                  ",
"                  ...######++++++++++++...                  ",
"                  ...######++++++++++++...                  ",
"               ...###############+++.........               ",
"               ...###############+++.........               ",
"               ...###############+++.........               ",
"            ...###$$$#########+++++++++%%%@@@...            ",
"            ...###$$$#########+++++++++%%%@@@...            ",
"            ...###$$$#########+++++++++%%%@@@...            ",
"         ...######$$$###+++@@@+++@@@+++%%%@@@@@@...         ",
"         ...######$$$###+++@@@+++@@@+++%%%@@@@@@...         ",
"         ...######$$$###+++@@@+++@@@+++%%%@@@@@@...         ",
"         ...#########$$$$$$%%%+++%%%%%%++++++@@@...         ",
"         ...#########$$$$$$%%%+++%%%%%%++++++@@@...         ",
"         ...#########$$$$$$%%%+++%%%%%%++++++@@@...         ",
"            ...######+++@@@+++++++++@@@@@@+++...            ",
"            ...######+++@@@+++++++++@@@@@@+++...            ",
"            ...######+++@@@+++++++++@@@@@@+++...            ",
"            ...######$$$%%%%%%+++%%%%%%++++++...            ",
"            ...######$$$%%%%%%+++%%%%%%++++++...            ",
"            ...######$$$%%%%%%+++%%%%%%++++++...            ",
"               ...#########+++++++++++++++...               ",
"               ...#########+++++++++++++++...               ",
"               ...#########+++++++++++++++...               ",
"               ...&&&&&&&&&***===*********...               ",
"               ...&&&&&&&&&***===*********...               ",
"               ...&&&&&&&&&***===*********...               ",
"               ...------;;;>>>,,,,,,''''''...               ",
"               ...------;;;>>>,,,,,,''''''...               ",
"               ...------;;;>>>,,,,,,''''''...               ",
"                  ...;;;>>>......))),,,...                  ",
"                  ...;;;>>>......))),,,...                  ",
"                  ...;;;>>>......))),,,...                  ",
"                  ...---;;;......,,,'''...                  ",
"                  ...---;;;......,,,'''...                  ",
"                  ...---;;;......,,,'''...                  ",
"                     ......      ......                     ",
"                     ......      ......                     ",
"                     ......      ......                     ",
"                                                            ",
"                                                            ",
"                                                            "};
