/* XPM */
static char * door = {
"60 60 50 1",
" 	c #000000",
".	c #222034",
"+	c #45283C",
"@	c #663931",
"#	c #8F563B",
"$	c #DF7126",
"%	c #D9A066",
"&	c #EEC39A",
"*	c #FBF236",
"=	c #99E550",
"-	c #6ABE30",
";	c #37946E",
">	c #4B692F",
",	c #524B24",
"'	c #323C39",
")	c #3F3F74",
"!	c #306082",
"~	c #5B6EE1",
"{	c #639BFF",
"]	c #5FCDE4",
"^	c #CBDBFC",
"/	c #FFFFFF",
"(	c #9BADB7",
"_	c #847E87",
":	c #696A6A",
"<	c #595652",
"[	c #76428A",
"}	c #AC3232",
"|	c #D95763",
"1	c #D77BBA",
"2	c #8F974A",
"3	c #8A6F30",
"4	c #000000",
"5	c #000000",
"6	c #000000",
"7	c #6A2E2E",
"8	c #6F4A4A",
"9	c #442A2A",
"0	c #914F4F",
"a	c #774343",
"b	c #000000",
"c	c #000000",
"d	c #000000",
"e	c #000000",
"f	c #000000",
"g	c #000000",
"h	c #000000",
"i	c #000000",
"j	c #000000",
"k	c #000000",
"888888888888888888888888888888888888888888888888888888888888",
"897777777897777777789777777778977777777897777777789777777778",
"897777777897777777789777777778977777777897777777789777777778",
"897777777897777777789777777778977777777897777777789777777778",
"897777777897777777789777777778977777777897777777789777777778",
"897777777897777777789777777778977777777897777777789777777778",
"897777777897777777789777777778977777777897777777789777777778",
"897777777897777777789777777778977777777897777777789777777778",
"897777777897777777789777777778977777777897777777789777777778",
"897777777897777777789777777778977777777897777777789777777778",
"897777777897777777789777777778977777777897777777789777777778",
"897777777897777777789777777778977777777897777777789777777778",
"897777777897777777789777777778977777777897777777789777777778",
"897777777897777777789777777778977777777897777777789777777778",
"897777777897777777789777777778977777777897777777789777777778",
"897777777897777777789777777778977777777897777777789777777778",
"897777777897777777789777777778977777777897777777789777777778",
"897777777897777777789777777778977777777897777777789777777778",
"897777777897777777789777777778977777777897777777789777777778",
"897777777897777777789777777778977777777897777777789777777778",
"897777777897777777789777777778977777777897777777789777777778",
"897777777897777777789777777778977777777897777777789777777778",
"897777777897777777789777777778977777777897777777789777777778",
"897777777897777777789777777778977777777897777777789777777778",
"897777777897777777789777777778977777777897777777789777777778",
"897777777897777777789777777778977777777897777777789777777778",
"897777777897777777789777777778977777777897777777789777777778",
"897777777897777777789777777778977777777897777777789777777778",
"897777777897777777789777777778977777777897777777789777777778",
"897777777897777777789777777778977777777897000000789777777778",
"89777777789777777778977777777897777777789aa00000089777777778",
"897777777897777777789777777778977777777899aaaaaa789777777778",
"897777777897777777789777777778977777777897999999789777777778",
"897777777897777777789777777778977777777897777777789777777778",
"897777777897777777789777777778977777777897777777789777777778",
"897777777897777777789777777778977777777897777777789777777778",
"897777777897777777789777777778977777777897777777789777777778",
"897777777897777777789777777778977777777897777777789777777778",
"897777777897777777789777777778977777777897777777789777777778",
"897777777897777777789777777778977777777897777777789777777778",
"897777777897777777789777777778977777777897777777789777777778",
"897777777897777777789777777778977777777897777777789777777778",
"897777777897777777789777777778977777777897777777789777777778",
"897777777897777777789777777778977777777897777777789777777778",
"897777777897777777789777777778977777777897777777789777777778",
"897777777897777777789777777778977777777897777777789777777778",
"897777777897777777789777777778977777777897777777789777777778",
"897777777897777777789777777778977777777897777777789777777778",
"897777777897777777789777777778977777777897777777789777777778",
"897777777897777777789777777778977777777897777777789777777778",
"897777777897777777789777777778977777777897777777789777777778",
"897777777897777777789777777778977777777897777777789777777778",
"897777777897777777789777777778977777777897777777789777777778",
"897777777897777777789777777778977777777897777777789777777778",
"897777777897777777789777777778977777777897777777789777777778",
"897777777897777777789777777778977777777897777777789777777778",
"897777777897777777789777777778977777777897777777789777777778",
"897777777897777777789777777778977777777897777777789777777778",
"899999999899999999989999999998999999999899999999989999999998",
"888888888888888888888888888888888888888888888888888888888888"};
