/* XPM */
static char * gun1 = {
"50 50 7 1",
" 	c None",
".	c #000000",
"+	c #2A2B33",
"@	c #3C3E48",
"#	c #1E1F24",
"$	c #A68A77",
"%	c #907360",
"                                                  ",
"                                                  ",
"                                                  ",
"                                                  ",
"                                                  ",
"                                                  ",
"                                                  ",
"                                                  ",
"                                                  ",
"                                                  ",
"                                                  ",
"                                                  ",
"                                                  ",
"                                                  ",
"                                                  ",
"                                                  ",
"                                                  ",
"                        .                         ",
"                       .+.                        ",
"                       .+.                        ",
"                       .@+..                      ",
"                       .@+++.                     ",
"                       .+@++.                     ",
"                      .++@+++.                    ",
"                      .+++@+++.                   ",
"                      .+++@+++.                   ",
"                      .#+++@+++..                 ",
"                      .#+++@++++#.                ",
"                       .#+++@++#++.               ",
"                       .#+++@++++#+.              ",
"                       .#++@+@++#++.              ",
"                      ...#+@+@@+++#+.             ",
"                     .$%.#@+++@@+#+++.            ",
"                    .$$%.#@+++@@++++#.            ",
"                    .$$%%.#++++@@++#++.           ",
"                    .$$$%.#++++@@+++++.           ",
"                    .$$$%.#+++++@@++++.           ",
"                    .$$$%%.#++++@@@+++.           ",
"                     .$$$%.##++++@@++++.          ",
"                     .$$$%%.##+++@@@+++.          ",
"                     .$$$%%.##++++@@@@++.         ",
"                     .$$$%%.###+++@@@@@+.         ",
"                    .$$$$%%%.##++++@@@@@+.        ",
"                   .$$$$$%%%.###+++@@@@@@@.       ",
"                   .$$$$$%%%.###++++@@@@@@.       ",
"                  .$$$$$$%%%%.###+++@@@@@@@.      ",
"                  .$$$$$%%%%%.###++++@@@@@@.      ",
"                  .$$$$$%%%%%.####+++@@@@@@@.     ",
"                 .$$$$$$%%%%%%.###++++@@@@@@.     ",
"                 .............................    "};
