/* XPM */
static char * gun2 = {
"50 50 8 1",
" 	c None",
".	c #FFFF95",
"+	c #000000",
"@	c #2A2B33",
"#	c #3C3E48",
"$	c #1E1F24",
"%	c #A68A77",
"&	c #907360",
"                                                  ",
"                                                  ",
"                                                  ",
"                                                  ",
"                                                  ",
"                                        .   .     ",
"                                   .    .. .. .   ",
"                                   .   ... ....   ",
"                                   ..  .......    ",
"                                   ..........     ",
"                              ..............      ",
"                                ............      ",
"                                   .......++      ",
"                                     ....+@+      ",
"                                      ...+#+      ",
"                                       .+#@@+     ",
"                                       ++@@@+     ",
"                                      +@@@#@@+    ",
"                                      +@@@@@++    ",
"                                      +@@@#@@+    ",
"                                      +@@@#@@+    ",
"                                      +@@@#@@+    ",
"                                     +$@@@#@@@+   ",
"                                   +++$@@@#@@@++  ",
"                                 ++%&+$@@##@@$$+  ",
"                                ++%%&+$@#@#@@@@@+ ",
"                                +%%%&+$#@@#@@$$@+ ",
"                                +%%%&+#@@@#@@$@@+ ",
"                                +%%&&+$@@@##@@$$+ ",
"                                +%%&&+@@@@##@$@@+ ",
"                               +%%%&&+@@@@##@@@@@+",
"                               +%%%&&+@@@@##@@$$@+",
"                             ++%%%%&&+@@@@###@@@@+",
"                            +%%%%%%&&+@@@@##@@@@@+",
"                          ++%%%%%%%&+$@@@@###@@@+ ",
"                          +%%%%%%%&&+$@@@@@#@@@@+ ",
"                         +%%%%%%%%&&+$@@@@@##@@@+ ",
"                        +%%%%%%%%%&&+$$@@@@###@@+ ",
"                       +%%%%%%%%%%&&+$$@@@@###@@+ ",
"                      +%%%%%%%%%%%&&+$$@@@@####@+ ",
"                     +%%%%%%%%%%%%&&+$$$@@@#####+ ",
"                    +%%%%%%%%%%%%&&&+$$$@@@#####+ ",
"                   +%%%%%%%%%%%%%&&&+$$$@@@######+",
"                   +%%%%%%%%%%%%%&&&+$$$@@@######+",
"                  +%%%%%%%%%%%%%&&&+$$$$@@@######+",
"                 +%%%%%%%%%%%%%%&&&+$$$$$@@######+",
"                +%%%%%%%%%%%%%%%&&&+$$$$$@@@#####+",
"                +%%%%%%%%%%%%%%%&&&+$$$$$$@@#####+",
"               +%%%%%%%%%%%%%%%&&&&+$$$$$$@@#####+",
"               +++++++++++++++++++++++++++++++++++"};
